<mxfile host="app.diagrams.net" agent="Mozilla/5.0 (Windows NT 10.0; Win64; x64) AppleWebKit/537.36 (KHTML, like Gecko) Chrome/131.0.0.0 Safari/537.36" version="25.0.3">
  <diagram name="Page-1" id="ANGEtPEYG2wRvOHGO_hO">
    <mxGraphModel dx="1334" dy="939" grid="0" gridSize="10" guides="1" tooltips="1" connect="1" arrows="1" fold="1" page="0" pageScale="1" pageWidth="827" pageHeight="1169" math="0" shadow="0">
      <root>
        <mxCell id="0" />
        <mxCell id="1" parent="0" />
        <mxCell id="Zuiit-hqa-elz3wOQ6qW-1" value="VPC" style="points=[[0,0],[0.25,0],[0.5,0],[0.75,0],[1,0],[1,0.25],[1,0.5],[1,0.75],[1,1],[0.75,1],[0.5,1],[0.25,1],[0,1],[0,0.75],[0,0.5],[0,0.25]];outlineConnect=0;gradientColor=none;html=1;whiteSpace=wrap;fontSize=12;fontStyle=0;container=1;pointerEvents=0;collapsible=0;recursiveResize=0;shape=mxgraph.aws4.group;grIcon=mxgraph.aws4.group_vpc2;strokeColor=#8C4FFF;fillColor=none;verticalAlign=top;align=left;spacingLeft=30;fontColor=#AAB7B8;dashed=0;" vertex="1" parent="1">
          <mxGeometry x="166" y="-160" width="634" height="570" as="geometry" />
        </mxCell>
        <mxCell id="Zuiit-hqa-elz3wOQ6qW-30" value="Security group" style="fillColor=none;strokeColor=#DD3522;verticalAlign=top;fontStyle=0;fontColor=#DD3522;whiteSpace=wrap;html=1;" vertex="1" parent="Zuiit-hqa-elz3wOQ6qW-1">
          <mxGeometry x="102" y="333" width="130" height="124" as="geometry" />
        </mxCell>
        <mxCell id="Zuiit-hqa-elz3wOQ6qW-19" value="Security group" style="fillColor=none;strokeColor=#DD3522;verticalAlign=top;fontStyle=0;fontColor=#DD3522;whiteSpace=wrap;html=1;" vertex="1" parent="Zuiit-hqa-elz3wOQ6qW-1">
          <mxGeometry x="362" y="195" width="130" height="130" as="geometry" />
        </mxCell>
        <mxCell id="Zuiit-hqa-elz3wOQ6qW-13" style="edgeStyle=orthogonalEdgeStyle;rounded=0;orthogonalLoop=1;jettySize=auto;html=1;" edge="1" parent="Zuiit-hqa-elz3wOQ6qW-1" source="Zuiit-hqa-elz3wOQ6qW-2" target="Zuiit-hqa-elz3wOQ6qW-7">
          <mxGeometry relative="1" as="geometry" />
        </mxCell>
        <mxCell id="Zuiit-hqa-elz3wOQ6qW-2" value="Public subnet" style="sketch=0;outlineConnect=0;gradientColor=none;html=1;whiteSpace=wrap;fontSize=12;fontStyle=0;shape=mxgraph.aws4.group;grIcon=mxgraph.aws4.group_subnet;strokeColor=#879196;fillColor=none;verticalAlign=top;align=left;spacingLeft=30;fontColor=#879196;dashed=0;" vertex="1" parent="Zuiit-hqa-elz3wOQ6qW-1">
          <mxGeometry x="54" y="160" width="226" height="214" as="geometry" />
        </mxCell>
        <mxCell id="Zuiit-hqa-elz3wOQ6qW-3" value="Private subnet" style="sketch=0;outlineConnect=0;gradientColor=none;html=1;whiteSpace=wrap;fontSize=12;fontStyle=0;shape=mxgraph.aws4.group;grIcon=mxgraph.aws4.group_subnet;strokeColor=#879196;fillColor=none;verticalAlign=top;align=left;spacingLeft=30;fontColor=#879196;dashed=0;" vertex="1" parent="Zuiit-hqa-elz3wOQ6qW-1">
          <mxGeometry x="310" y="160" width="234" height="200" as="geometry" />
        </mxCell>
        <mxCell id="Zuiit-hqa-elz3wOQ6qW-6" value="Security group" style="fillColor=none;strokeColor=#DD3522;verticalAlign=top;fontStyle=0;fontColor=#DD3522;whiteSpace=wrap;html=1;" vertex="1" parent="Zuiit-hqa-elz3wOQ6qW-1">
          <mxGeometry x="102" y="195" width="130" height="130" as="geometry" />
        </mxCell>
        <mxCell id="Zuiit-hqa-elz3wOQ6qW-4" value="bastion" style="sketch=0;points=[[0,0,0],[0.25,0,0],[0.5,0,0],[0.75,0,0],[1,0,0],[0,1,0],[0.25,1,0],[0.5,1,0],[0.75,1,0],[1,1,0],[0,0.25,0],[0,0.5,0],[0,0.75,0],[1,0.25,0],[1,0.5,0],[1,0.75,0]];outlineConnect=0;fontColor=#232F3E;fillColor=#ED7100;strokeColor=#ffffff;dashed=0;verticalLabelPosition=bottom;verticalAlign=top;align=center;html=1;fontSize=12;fontStyle=0;aspect=fixed;shape=mxgraph.aws4.resourceIcon;resIcon=mxgraph.aws4.ec2;" vertex="1" parent="Zuiit-hqa-elz3wOQ6qW-1">
          <mxGeometry x="128" y="221" width="78" height="78" as="geometry" />
        </mxCell>
        <mxCell id="Zuiit-hqa-elz3wOQ6qW-7" value="Public table" style="sketch=0;outlineConnect=0;fontColor=#232F3E;gradientColor=none;fillColor=#8C4FFF;strokeColor=none;dashed=0;verticalLabelPosition=middle;verticalAlign=middle;align=left;html=1;fontSize=12;fontStyle=0;aspect=fixed;pointerEvents=1;shape=mxgraph.aws4.route_table;labelPosition=right;" vertex="1" parent="Zuiit-hqa-elz3wOQ6qW-1">
          <mxGeometry x="194" y="10" width="78" height="76" as="geometry" />
        </mxCell>
        <mxCell id="Zuiit-hqa-elz3wOQ6qW-17" value="application" style="sketch=0;points=[[0,0,0],[0.25,0,0],[0.5,0,0],[0.75,0,0],[1,0,0],[0,1,0],[0.25,1,0],[0.5,1,0],[0.75,1,0],[1,1,0],[0,0.25,0],[0,0.5,0],[0,0.75,0],[1,0.25,0],[1,0.5,0],[1,0.75,0]];outlineConnect=0;fontColor=#232F3E;fillColor=#ED7100;strokeColor=#ffffff;dashed=0;verticalLabelPosition=bottom;verticalAlign=top;align=center;html=1;fontSize=12;fontStyle=0;aspect=fixed;shape=mxgraph.aws4.resourceIcon;resIcon=mxgraph.aws4.ec2;" vertex="1" parent="Zuiit-hqa-elz3wOQ6qW-1">
          <mxGeometry x="388" y="221" width="78" height="78" as="geometry" />
        </mxCell>
        <mxCell id="Zuiit-hqa-elz3wOQ6qW-18" style="edgeStyle=orthogonalEdgeStyle;rounded=0;orthogonalLoop=1;jettySize=auto;html=1;entryX=0;entryY=0.5;entryDx=0;entryDy=0;entryPerimeter=0;" edge="1" parent="Zuiit-hqa-elz3wOQ6qW-1" source="Zuiit-hqa-elz3wOQ6qW-4" target="Zuiit-hqa-elz3wOQ6qW-17">
          <mxGeometry relative="1" as="geometry" />
        </mxCell>
        <mxCell id="Zuiit-hqa-elz3wOQ6qW-20" value="Load Balancer" style="sketch=0;outlineConnect=0;fontColor=#232F3E;gradientColor=none;fillColor=#8C4FFF;strokeColor=none;dashed=0;verticalLabelPosition=bottom;verticalAlign=top;align=center;html=1;fontSize=12;fontStyle=0;aspect=fixed;pointerEvents=1;shape=mxgraph.aws4.application_load_balancer;" vertex="1" parent="Zuiit-hqa-elz3wOQ6qW-1">
          <mxGeometry x="128" y="352" width="78" height="78" as="geometry" />
        </mxCell>
        <mxCell id="Zuiit-hqa-elz3wOQ6qW-21" style="edgeStyle=orthogonalEdgeStyle;rounded=0;orthogonalLoop=1;jettySize=auto;html=1;entryX=0;entryY=0.75;entryDx=0;entryDy=0;entryPerimeter=0;dashed=1;" edge="1" parent="Zuiit-hqa-elz3wOQ6qW-1" source="Zuiit-hqa-elz3wOQ6qW-20" target="Zuiit-hqa-elz3wOQ6qW-17">
          <mxGeometry relative="1" as="geometry" />
        </mxCell>
        <mxCell id="Zuiit-hqa-elz3wOQ6qW-9" value="AWS Cloud" style="points=[[0,0],[0.25,0],[0.5,0],[0.75,0],[1,0],[1,0.25],[1,0.5],[1,0.75],[1,1],[0.75,1],[0.5,1],[0.25,1],[0,1],[0,0.75],[0,0.5],[0,0.25]];outlineConnect=0;gradientColor=none;html=1;whiteSpace=wrap;fontSize=12;fontStyle=0;container=1;pointerEvents=0;collapsible=0;recursiveResize=0;shape=mxgraph.aws4.group;grIcon=mxgraph.aws4.group_aws_cloud_alt;strokeColor=#232F3E;fillColor=none;verticalAlign=top;align=left;spacingLeft=30;fontColor=#232F3E;dashed=0;" vertex="1" parent="1">
          <mxGeometry x="93" y="-208" width="776" height="646" as="geometry" />
        </mxCell>
        <mxCell id="Zuiit-hqa-elz3wOQ6qW-5" value="Private table" style="sketch=0;outlineConnect=0;fontColor=#232F3E;gradientColor=none;fillColor=#8C4FFF;strokeColor=none;dashed=0;verticalLabelPosition=middle;verticalAlign=middle;align=left;html=1;fontSize=12;fontStyle=0;aspect=fixed;pointerEvents=1;shape=mxgraph.aws4.route_table;labelPosition=right;" vertex="1" parent="Zuiit-hqa-elz3wOQ6qW-9">
          <mxGeometry x="461" y="469" width="78" height="76" as="geometry" />
        </mxCell>
        <mxCell id="Zuiit-hqa-elz3wOQ6qW-29" value="Public subnet" style="sketch=0;outlineConnect=0;gradientColor=none;html=1;whiteSpace=wrap;fontSize=12;fontStyle=0;shape=mxgraph.aws4.group;grIcon=mxgraph.aws4.group_subnet;strokeColor=#879196;fillColor=none;verticalAlign=top;align=left;spacingLeft=30;fontColor=#879196;dashed=0;" vertex="1" parent="Zuiit-hqa-elz3wOQ6qW-9">
          <mxGeometry x="125" y="466" width="226" height="75" as="geometry" />
        </mxCell>
        <mxCell id="Zuiit-hqa-elz3wOQ6qW-8" value="KeyPair" style="image;aspect=fixed;perimeter=ellipsePerimeter;html=1;align=center;shadow=0;dashed=0;spacingTop=3;image=img/lib/active_directory/key.svg;" vertex="1" parent="Zuiit-hqa-elz3wOQ6qW-9">
          <mxGeometry x="111" y="117" width="50" height="37" as="geometry" />
        </mxCell>
        <mxCell id="Zuiit-hqa-elz3wOQ6qW-10" value="Internet Gateway" style="sketch=0;outlineConnect=0;fontColor=#232F3E;gradientColor=none;fillColor=#8C4FFF;strokeColor=none;dashed=0;verticalLabelPosition=bottom;verticalAlign=top;align=center;html=1;fontSize=12;fontStyle=0;aspect=fixed;pointerEvents=1;shape=mxgraph.aws4.internet_gateway;" vertex="1" parent="1">
          <mxGeometry x="46" y="-11" width="78" height="78" as="geometry" />
        </mxCell>
        <mxCell id="Zuiit-hqa-elz3wOQ6qW-11" style="edgeStyle=orthogonalEdgeStyle;rounded=0;orthogonalLoop=1;jettySize=auto;html=1;" edge="1" parent="1" source="Zuiit-hqa-elz3wOQ6qW-7" target="Zuiit-hqa-elz3wOQ6qW-10">
          <mxGeometry relative="1" as="geometry" />
        </mxCell>
        <mxCell id="Zuiit-hqa-elz3wOQ6qW-12" value="0.0.0.0/0" style="edgeLabel;html=1;align=center;verticalAlign=middle;resizable=0;points=[];" vertex="1" connectable="0" parent="Zuiit-hqa-elz3wOQ6qW-11">
          <mxGeometry x="0.2014" y="-2" relative="1" as="geometry">
            <mxPoint as="offset" />
          </mxGeometry>
        </mxCell>
        <mxCell id="Zuiit-hqa-elz3wOQ6qW-15" style="edgeStyle=orthogonalEdgeStyle;rounded=0;orthogonalLoop=1;jettySize=auto;html=1;dashed=1;" edge="1" parent="1" source="Zuiit-hqa-elz3wOQ6qW-14" target="Zuiit-hqa-elz3wOQ6qW-10">
          <mxGeometry relative="1" as="geometry">
            <Array as="points">
              <mxPoint x="-12" y="28" />
              <mxPoint x="-12" y="28" />
            </Array>
          </mxGeometry>
        </mxCell>
        <mxCell id="Zuiit-hqa-elz3wOQ6qW-14" value="Admin" style="html=1;verticalLabelPosition=bottom;align=center;labelBackgroundColor=#ffffff;verticalAlign=top;strokeWidth=2;strokeColor=#0080F0;shadow=0;dashed=0;shape=mxgraph.ios7.icons.user;" vertex="1" parent="1">
          <mxGeometry x="-81" y="13" width="30" height="30" as="geometry" />
        </mxCell>
        <mxCell id="Zuiit-hqa-elz3wOQ6qW-16" style="edgeStyle=orthogonalEdgeStyle;rounded=0;orthogonalLoop=1;jettySize=auto;html=1;entryX=0;entryY=0.5;entryDx=0;entryDy=0;entryPerimeter=0;dashed=1;" edge="1" parent="1" source="Zuiit-hqa-elz3wOQ6qW-10" target="Zuiit-hqa-elz3wOQ6qW-4">
          <mxGeometry relative="1" as="geometry" />
        </mxCell>
        <mxCell id="Zuiit-hqa-elz3wOQ6qW-23" style="edgeStyle=orthogonalEdgeStyle;rounded=0;orthogonalLoop=1;jettySize=auto;html=1;dashed=1;" edge="1" parent="1" source="Zuiit-hqa-elz3wOQ6qW-22" target="Zuiit-hqa-elz3wOQ6qW-20">
          <mxGeometry relative="1" as="geometry" />
        </mxCell>
        <mxCell id="Zuiit-hqa-elz3wOQ6qW-24" value="80/443" style="edgeLabel;html=1;align=center;verticalAlign=middle;resizable=0;points=[];" vertex="1" connectable="0" parent="Zuiit-hqa-elz3wOQ6qW-23">
          <mxGeometry x="0.2226" y="1" relative="1" as="geometry">
            <mxPoint as="offset" />
          </mxGeometry>
        </mxCell>
        <mxCell id="Zuiit-hqa-elz3wOQ6qW-22" value="User" style="html=1;verticalLabelPosition=bottom;align=center;labelBackgroundColor=#ffffff;verticalAlign=top;strokeWidth=2;strokeColor=#0080F0;shadow=0;dashed=0;shape=mxgraph.ios7.icons.user;" vertex="1" parent="1">
          <mxGeometry x="-90" y="216" width="30" height="30" as="geometry" />
        </mxCell>
        <mxCell id="Zuiit-hqa-elz3wOQ6qW-25" style="edgeStyle=orthogonalEdgeStyle;rounded=0;orthogonalLoop=1;jettySize=auto;html=1;startArrow=classic;startFill=1;endArrow=none;endFill=0;" edge="1" parent="1" source="Zuiit-hqa-elz3wOQ6qW-5" target="Zuiit-hqa-elz3wOQ6qW-3">
          <mxGeometry relative="1" as="geometry" />
        </mxCell>
        <mxCell id="Zuiit-hqa-elz3wOQ6qW-26" style="edgeStyle=orthogonalEdgeStyle;rounded=0;orthogonalLoop=1;jettySize=auto;html=1;" edge="1" parent="1" source="Zuiit-hqa-elz3wOQ6qW-5" target="Zuiit-hqa-elz3wOQ6qW-28">
          <mxGeometry relative="1" as="geometry">
            <Array as="points">
              <mxPoint x="593" y="354" />
            </Array>
          </mxGeometry>
        </mxCell>
        <mxCell id="Zuiit-hqa-elz3wOQ6qW-31" value="0.0.0.0/0" style="edgeLabel;html=1;align=center;verticalAlign=middle;resizable=0;points=[];" vertex="1" connectable="0" parent="Zuiit-hqa-elz3wOQ6qW-26">
          <mxGeometry x="-0.0757" y="5" relative="1" as="geometry">
            <mxPoint x="4" y="-5" as="offset" />
          </mxGeometry>
        </mxCell>
        <mxCell id="Zuiit-hqa-elz3wOQ6qW-28" value="NAT Gateway" style="sketch=0;outlineConnect=0;fontColor=#232F3E;gradientColor=none;fillColor=#8C4FFF;strokeColor=none;dashed=0;verticalLabelPosition=bottom;verticalAlign=top;align=center;html=1;fontSize=12;fontStyle=0;aspect=fixed;pointerEvents=1;shape=mxgraph.aws4.nat_gateway;" vertex="1" parent="1">
          <mxGeometry x="57" y="315" width="78" height="78" as="geometry" />
        </mxCell>
        <mxCell id="Zuiit-hqa-elz3wOQ6qW-33" style="edgeStyle=orthogonalEdgeStyle;rounded=0;orthogonalLoop=1;jettySize=auto;html=1;" edge="1" parent="1" source="Zuiit-hqa-elz3wOQ6qW-32" target="Zuiit-hqa-elz3wOQ6qW-28">
          <mxGeometry relative="1" as="geometry">
            <Array as="points">
              <mxPoint x="39" y="348" />
              <mxPoint x="52" y="348" />
              <mxPoint x="52" y="354" />
            </Array>
          </mxGeometry>
        </mxCell>
        <mxCell id="Zuiit-hqa-elz3wOQ6qW-32" value="" style="sketch=0;outlineConnect=0;fontColor=#232F3E;gradientColor=none;fillColor=#ED7100;strokeColor=none;dashed=0;verticalLabelPosition=bottom;verticalAlign=top;align=center;html=1;fontSize=12;fontStyle=0;aspect=fixed;pointerEvents=1;shape=mxgraph.aws4.elastic_ip_address;" vertex="1" parent="1">
          <mxGeometry x="15" y="279" width="48" height="20" as="geometry" />
        </mxCell>
      </root>
    </mxGraphModel>
  </diagram>
</mxfile>
